<svg width="2447" height="552" viewBox="0 0 2447 552" fill="none" xmlns="http://www.w3.org/2000/svg">
<g clip-path="url(#clip0_145_2)">
<path d="M396.418 20C396.418 8.95431 405.372 8.24649e-06 416.418 0C427.464 0 436.418 8.9543 436.418 20V176H492.465C511.662 176 529.702 185.186 540.992 200.713L634.069 328.713C649.367 349.751 649.367 378.249 634.069 399.287L540.992 527.287C529.702 542.814 511.663 552 492.465 552H360C326.863 552 300 525.137 300 492V236C300 202.863 326.863 176 360 176H396.418V20ZM740 480C740 441.34 771.34 410 810 410C821.046 410 830 418.954 830 430C830 441.046 821.046 450 810 450C793.431 450 780 463.431 780 480C780 496.569 793.431 510 810 510C826.569 510 840 496.569 840 480C840 468.954 848.954 460 860 460C871.046 460 880 468.954 880 480C880 518.66 848.66 550 810 550C771.34 550 740 518.66 740 480ZM914 61C914 49.9543 905.046 41 894 41H726C714.954 41 706 49.9543 706 61V253.378C706 259.525 708.827 265.33 713.666 269.121L797.666 334.93C804.91 340.605 815.09 340.605 822.334 334.93L906.334 269.121C911.173 265.33 914 259.525 914 253.378V61ZM340 492C340 503.046 348.954 512 360 512H492.465C498.864 512 504.877 508.938 508.641 503.763L601.718 375.763C606.817 368.75 606.817 359.25 601.718 352.237L508.641 224.237C504.877 219.062 498.864 216 492.465 216H360C348.954 216 340 224.954 340 236V492ZM954 253.378C954 271.819 945.519 289.235 931.003 300.608L847.003 366.418C825.272 383.443 794.728 383.443 772.997 366.418L688.997 300.608C674.481 289.235 666 271.819 666 253.378V61C666 27.8629 692.863 1 726 1H894C927.137 1 954 27.8629 954 61V253.378Z" fill="white"/>
<path d="M1167.3 125.086H1198.94L1369.25 246.57V125.086H1479.21V437H1437.22L1276.87 329.773V437H1167.3V125.086ZM1540.54 380.555L1659.48 280.945C1667.56 274.044 1673.55 266.948 1677.45 259.656C1681.49 252.365 1683.51 245.464 1683.51 238.953C1683.51 231.271 1680.97 224.956 1675.89 220.008C1670.94 215.06 1663.98 212.586 1654.99 212.586C1642.75 212.586 1628.3 217.208 1611.63 226.453C1594.97 235.568 1578.62 248.654 1562.61 265.711L1516.71 199.891C1527.65 181.661 1542.23 166.427 1560.46 154.188C1578.82 141.818 1598.94 132.508 1620.81 126.258C1642.69 119.878 1664.5 116.688 1686.24 116.688C1703.69 116.688 1720.36 118.771 1736.24 122.938C1752.26 127.104 1766.45 133.419 1778.82 141.883C1791.32 150.346 1801.15 160.958 1808.31 173.719C1815.47 186.479 1819.05 201.453 1819.05 218.641C1819.05 233.354 1815.93 246.701 1809.68 258.68C1803.56 270.529 1795.55 281.401 1785.66 291.297C1775.89 301.062 1765.34 310.242 1754.02 318.836C1742.69 327.299 1731.95 335.503 1721.79 343.445H1821.01V437H1540.54V380.555ZM2019.84 116.297C2056.16 116.297 2085.59 120.594 2108.12 129.188C2130.77 137.781 2147.38 151.388 2157.92 170.008C2168.47 188.628 2173.74 213.107 2173.74 243.445C2173.74 263.758 2169.9 282.378 2162.22 299.305C2154.67 316.102 2144.18 330.62 2130.77 342.859C2117.36 355.099 2101.74 364.604 2083.9 371.375C2066.19 378.016 2047.18 381.336 2026.87 381.336C2021.66 381.336 2016.26 381.206 2010.66 380.945C2005.19 380.685 1999 380.555 1992.1 380.555V437H1864.56V125.867C1894.9 122.872 1922.9 120.529 1948.55 118.836C1974.2 117.143 1997.96 116.297 2019.84 116.297ZM2040.54 197.352C2035.98 197.352 2030.84 198.523 2025.11 200.867C2019.51 203.211 2014.11 205.945 2008.9 209.07C2003.82 212.065 1999.59 214.734 1996.2 217.078C1992.95 219.422 1991.32 220.594 1991.32 220.594V294.227L2014.17 283.094C2027.32 276.583 2038.65 268.576 2048.16 259.07C2057.79 249.435 2062.61 237 2062.61 221.766C2062.61 215.255 2060.66 209.591 2056.75 204.773C2052.97 199.826 2047.57 197.352 2040.54 197.352Z" fill="white"/>
</g>
<defs>
<clipPath id="clip0_145_2">
<rect width="2447" height="552" fill="white"/>
</clipPath>
</defs>
</svg>
