<svg width="2447" height="419" viewBox="0 0 2447 419" fill="none" xmlns="http://www.w3.org/2000/svg">
<g clip-path="url(#clip0_145_2)">
<path d="M413.272 15.1988C413.272 6.80473 420.076 6.26683e-06 428.471 0C436.865 0 443.669 6.80472 443.669 15.1988V133.749H486.262C500.851 133.749 514.559 140.73 523.139 152.53L593.872 249.802C605.498 265.789 605.498 287.446 593.872 303.434L523.139 400.706C514.559 412.505 500.851 419.486 486.262 419.486H385.596C360.414 419.486 340 399.072 340 373.89V179.346C340 154.163 360.414 133.749 385.596 133.749H413.272V15.1988ZM674.373 364.771C674.373 335.391 698.19 311.575 727.569 311.575C735.963 311.575 742.768 318.38 742.768 326.774C742.768 335.168 735.963 341.972 727.569 341.972C714.978 341.972 704.771 352.18 704.771 364.771C704.771 377.362 714.978 387.569 727.569 387.569C740.16 387.569 750.367 377.362 750.367 364.771C750.367 356.377 757.172 349.572 765.566 349.572C773.96 349.572 780.765 356.377 780.765 364.771C780.765 394.15 756.948 417.966 727.569 417.966C698.19 417.966 674.373 394.15 674.373 364.771ZM806.602 46.3563C806.602 37.9622 799.798 31.1575 791.404 31.1575H663.734C655.34 31.1575 648.535 37.9622 648.535 46.3563V192.552C648.535 197.223 650.684 201.635 654.361 204.516L718.196 254.526C723.701 258.839 731.437 258.839 736.942 254.526L800.777 204.516C804.454 201.635 806.602 197.223 806.602 192.552V46.3563ZM370.398 373.89C370.398 382.284 377.202 389.089 385.596 389.089H486.262C491.124 389.089 495.694 386.762 498.554 382.829L569.287 285.557C573.162 280.228 573.162 273.008 569.287 267.679L498.554 170.407C495.694 166.474 491.124 164.147 486.262 164.147H385.596C377.202 164.147 370.398 170.952 370.398 179.346V373.89ZM837 192.552C837 206.566 830.555 219.801 819.524 228.444L755.689 278.455C739.175 291.393 715.963 291.393 699.449 278.455L635.614 228.444C624.582 219.801 618.138 206.566 618.138 192.552V46.3563C618.138 21.1741 638.552 0.759939 663.734 0.759939H791.404C816.586 0.759939 837 21.1741 837 46.3563V192.552Z" fill="white"/>
<path d="M1103.3 55.0859H1134.94L1305.25 176.57V55.0859H1415.21V367H1373.22L1212.87 259.773V367H1103.3V55.0859ZM1476.54 310.555L1595.48 210.945C1603.56 204.044 1609.55 196.948 1613.45 189.656C1617.49 182.365 1619.51 175.464 1619.51 168.953C1619.51 161.271 1616.97 154.956 1611.89 150.008C1606.94 145.06 1599.98 142.586 1590.99 142.586C1578.75 142.586 1564.3 147.208 1547.63 156.453C1530.97 165.568 1514.62 178.654 1498.61 195.711L1452.71 129.891C1463.65 111.661 1478.23 96.4271 1496.46 84.1875C1514.82 71.8177 1534.94 62.5078 1556.81 56.2578C1578.69 49.8776 1600.5 46.6875 1622.24 46.6875C1639.69 46.6875 1656.36 48.7708 1672.24 52.9375C1688.26 57.1042 1702.45 63.4193 1714.82 71.8828C1727.32 80.3464 1737.15 90.9583 1744.31 103.719C1751.47 116.479 1755.05 131.453 1755.05 148.641C1755.05 163.354 1751.93 176.701 1745.68 188.68C1739.56 200.529 1731.55 211.401 1721.66 221.297C1711.89 231.062 1701.34 240.242 1690.02 248.836C1678.69 257.299 1667.95 265.503 1657.79 273.445H1757.01V367H1476.54V310.555ZM1955.84 46.2969C1992.16 46.2969 2021.59 50.5938 2044.12 59.1875C2066.77 67.7812 2083.38 81.388 2093.92 100.008C2104.47 118.628 2109.74 143.107 2109.74 173.445C2109.74 193.758 2105.9 212.378 2098.22 229.305C2090.67 246.102 2080.18 260.62 2066.77 272.859C2053.36 285.099 2037.74 294.604 2019.9 301.375C2002.19 308.016 1983.18 311.336 1962.87 311.336C1957.66 311.336 1952.26 311.206 1946.66 310.945C1941.19 310.685 1935 310.555 1928.1 310.555V367H1800.56V55.8672C1830.9 52.8724 1858.9 50.5286 1884.55 48.8359C1910.2 47.1432 1933.96 46.2969 1955.84 46.2969ZM1976.54 127.352C1971.98 127.352 1966.84 128.523 1961.11 130.867C1955.51 133.211 1950.11 135.945 1944.9 139.07C1939.82 142.065 1935.59 144.734 1932.2 147.078C1928.95 149.422 1927.32 150.594 1927.32 150.594V224.227L1950.17 213.094C1963.32 206.583 1974.65 198.576 1984.16 189.07C1993.79 179.435 1998.61 167 1998.61 151.766C1998.61 145.255 1996.66 139.591 1992.75 134.773C1988.97 129.826 1983.57 127.352 1976.54 127.352Z" fill="white"/>
</g>
<defs>
<clipPath id="clip0_145_2">
<rect width="2447" height="419" fill="white"/>
</clipPath>
</defs>
</svg>
